HIERARCHY
ROOT Hips
{
	OFFSET 0.000000 0.000000 0.000000
	CHANNELS 6 Xposition Yposition Zposition Zrotation Yrotation Xrotation 
	JOINT LowerBack
	{
		OFFSET 0.000000 0.000000 0.000000
		CHANNELS 3 Zrotation Yrotation Xrotation
		JOINT Spine
		{
			OFFSET 0.028270 2.035590 -0.193380
			CHANNELS 3 Zrotation Yrotation Xrotation
			JOINT Spine1
			{
				OFFSET 0.056720 2.048850 -0.042750
				CHANNELS 3 Zrotation Yrotation Xrotation
				JOINT Neck
				{
					OFFSET 0.000000 0.000000 0.000000
					CHANNELS 3 Zrotation Yrotation Xrotation
					JOINT Neck1
					{
						OFFSET -0.054170 1.746240 0.172020
						CHANNELS 3 Zrotation Yrotation Xrotation
						JOINT Head
						{
							OFFSET 0.104070 1.761360 -0.123970
							CHANNELS 3 Zrotation Yrotation Xrotation
							End Site
							{
								OFFSET 0.000000 0.000000 0.000000
							}
						}
					}
				}
				JOINT LeftShoulder
				{
					OFFSET 0.000000 0.000000 0.000000
					CHANNELS 3 Zrotation Yrotation Xrotation
					JOINT LeftArm
					{
						OFFSET 3.362410 1.200890 -0.311210
						CHANNELS 3 Zrotation Yrotation Xrotation
						JOINT LeftForeArm
						{
							OFFSET 4.983000 -0.000000 -0.000000
							CHANNELS 3 Zrotation Yrotation Xrotation
							JOINT LeftHand
							{
								OFFSET 3.483560 -0.000000 -0.000000
								CHANNELS 3 Zrotation Yrotation Xrotation
								JOINT LeftFingerBase
								{
									OFFSET 0.000000 0.000000 0.000000
									CHANNELS 3 Zrotation Yrotation Xrotation
									JOINT LeftHandIndex1
									{
										OFFSET 0.715260 -0.000000 -0.000000
										CHANNELS 3 Zrotation Yrotation Xrotation
										End Site
										{
											OFFSET 0.000000 0.000000 0.000000
										}
									}
								}
								JOINT LThumb
								{
									OFFSET 0.000000 0.000000 0.000000
									CHANNELS 3 Zrotation Yrotation Xrotation
									End Site
									{
										OFFSET 0.000000 0.000000 0.000000
									}
								}
							}
						}
					}
				}
				JOINT RightShoulder
				{
					OFFSET 0.000000 0.000000 0.000000
					CHANNELS 3 Zrotation Yrotation Xrotation
					JOINT RightArm
					{
						OFFSET -3.136600 1.374050 -0.404650
						CHANNELS 3 Zrotation Yrotation Xrotation
						JOINT RightForeArm
						{
							OFFSET -5.241900 -0.000000 -0.000000
							CHANNELS 3 Zrotation Yrotation Xrotation
							JOINT RightHand
							{
								OFFSET -3.444170 -0.000000 -0.000000
								CHANNELS 3 Zrotation Yrotation Xrotation
								JOINT RightFingerBase
								{
									OFFSET 0.000000 0.000000 0.000000
									CHANNELS 3 Zrotation Yrotation Xrotation
									JOINT RightHandIndex1
									{
										OFFSET -0.622530 -0.000000 -0.000000
										CHANNELS 3 Zrotation Yrotation Xrotation
										End Site
										{
											OFFSET 0.000000 0.000000 0.000000
										}
									}
								}
								JOINT RThumb
								{
									OFFSET 0.000000 0.000000 0.000000
									CHANNELS 3 Zrotation Yrotation Xrotation
									End Site
									{
										OFFSET 0.000000 0.000000 0.000000
									}
								}
							}
						}
					}
				}
			}
		}
	}
}
}
MOTION
Frames: 12
Frame Time: 0.008333
-2.584223 15.616628 -1.254495 -149.992856 78.499539 -123.528594 8.853513 -2.379433 11.196649 1.178685 -2.524958 -0.788525 -5.208924 -2.436260 -0.713502 4.470746 -11.032999 -4.151611 -3.663184 -0.285513 0.533231 0.000000 0.000000 0.000000 10.040714 4.525261 -1.345921 -66.658295 -13.712867 8.099656 -178.347117 -60.784600 179.926012 7.234864 1.168198 0.040708 -0.261226 0.580225 -0.000000 0.000000 0.000000 0.000000 0.000000 0.000000 0.000000 6.098306 -8.944551 0.972829 70.888681 -19.984286 1.337456 0.126154 84.647195 -0.035038 -9.801748 2.134849 -0.205410 0.118529 -0.242280 -0.000000 0.000000 0.000000 0.000000 0.000000 0.000000 0.000000 
-2.398586 15.561631 -1.278653 -150.885694 77.947782 -124.855113 9.065668 -2.434015 11.477668 1.229660 -2.568779 -0.775888 -5.180194 -2.482735 -0.849479 4.489973 -10.845130 -4.016436 -3.683450 -0.287657 0.569480 0.000000 0.000000 0.000000 9.899073 4.106628 -1.306961 -67.373698 -12.648146 8.377741 -178.381570 -61.003579 179.928482 7.072661 0.988895 0.028308 -0.250000 0.581584 -0.000000 0.000000 0.000000 0.000000 0.000000 0.000000 0.000000 6.115292 -8.773554 0.992845 70.905090 -19.920120 1.106912 0.126956 84.716845 -0.034339 -9.582322 2.304841 -0.215422 0.115319 -0.244797 -0.000000 0.000000 0.000000 0.000000 0.000000 0.000000 0.000000 
-2.217209 15.508778 -1.306114 -151.639754 77.330773 -126.058061 9.323235 -2.489970 11.791323 1.285162 -2.611010 -0.762322 -5.168251 -2.528400 -1.006574 4.561989 -10.585654 -3.847748 -3.716624 -0.290737 0.613879 0.000000 0.000000 0.000000 9.678704 3.631820 -1.254416 -68.155708 -11.540175 8.640924 -178.421607 -61.359986 179.931026 6.906025 0.775692 0.014207 -0.237896 0.583445 -0.000000 0.000000 0.000000 0.000000 0.000000 0.000000 0.000000 6.246015 -8.557144 1.017482 70.843314 -19.733936 0.833774 0.131048 84.651634 -0.033765 -9.410528 2.429203 -0.222036 0.112788 -0.246438 -0.000000 0.000000 0.000000 0.000000 0.000000 0.000000 0.000000 
-2.040319 15.459531 -1.336813 -152.223207 76.654839 -127.088576 9.620205 -2.545590 12.125332 1.343244 -2.649894 -0.747994 -5.176079 -2.571350 -1.177319 4.697172 -10.260576 -3.650086 -3.760895 -0.294543 0.665222 0.000000 0.000000 0.000000 9.375409 3.124338 -1.189296 -68.995233 -10.407372 8.884394 -178.469570 -61.881338 179.933518 6.747046 0.544713 -0.000297 -0.225334 0.585025 -0.000000 0.000000 0.000000 0.000000 0.000000 0.000000 0.000000 6.500618 -8.304717 1.042905 70.698286 -19.398825 0.528153 0.138940 84.429691 -0.033361 -9.302271 2.491114 -0.224653 0.111236 -0.246926 -0.000000 0.000000 0.000000 0.000000 0.000000 0.000000 0.000000 
-1.867994 15.414978 -1.370260 -152.641625 75.933010 -127.937938 9.944159 -2.598912 12.467774 1.401047 -2.683423 -0.732704 -5.205154 -2.609422 -1.353532 4.902305 -9.881860 -3.429655 -3.812977 -0.298770 0.721948 0.000000 0.000000 0.000000 8.991041 2.603028 -1.114108 -69.880235 -9.259624 9.100253 -178.529285 -62.594984 179.935825 6.610071 0.311002 -0.014206 -0.212677 0.585466 -0.000000 0.000000 0.000000 0.000000 0.000000 0.000000 0.000000 6.879820 -8.029330 1.065762 70.473989 -18.892415 0.199838 0.151073 84.032169 -0.033177 -9.272893 2.476373 -0.222673 0.110923 -0.246062 -0.000000 0.000000 0.000000 0.000000 0.000000 0.000000 0.000000 
-1.700075 15.375928 -1.405847 -152.917419 75.179251 -128.616584 10.279587 -2.647966 12.806108 1.455264 -2.709726 -0.715907 -5.257032 -2.640503 -1.525463 5.181528 -9.461450 -3.194961 -3.869115 -0.303084 0.781927 0.000000 0.000000 0.000000 8.529115 2.093927 -1.031148 -70.792084 -8.115849 9.286068 -178.603452 -63.532095 179.937813 6.511068 0.096481 -0.026423 -0.200468 0.583684 -0.000000 0.000000 0.000000 0.000000 0.000000 0.000000 0.000000 7.379984 -7.741643 1.081790 70.181101 -18.203607 -0.145414 0.167596 83.451525 -0.033262 -9.335339 2.375070 -0.215592 0.112006 -0.243755 -0.000000 0.000000 0.000000 0.000000 0.000000 0.000000 0.000000 
-1.536236 15.342746 -1.442721 -153.098028 74.410061 -129.163437 10.607207 -2.690946 13.129469 1.502250 -2.727292 -0.696685 -5.331823 -2.662819 -1.683069 5.533915 -9.015487 -2.956236 -3.925073 -0.307142 0.842591 0.000000 0.000000 0.000000 7.999553 1.620058 -0.943614 -71.709896 -6.991548 9.438797 -178.694477 -64.718412 179.939350 6.467994 -0.079900 -0.036153 -0.189258 0.578730 -0.000000 0.000000 0.000000 0.000000 0.000000 0.000000 0.000000 7.988910 -7.453772 1.087302 69.839184 -17.329188 -0.505654 0.188353 82.688373 -0.033667 -9.499361 2.183754 -0.203013 0.114529 -0.240056 -0.000000 0.000000 0.000000 0.000000 0.000000 0.000000 0.000000 
-1.376122 15.315473 -1.480136 -153.230075 73.640004 -129.620252 10.906866 -2.726317 13.428100 1.538396 -2.735156 -0.674174 -5.429260 -2.675143 -1.816932 5.953983 -8.559649 -2.724478 -3.976679 -0.310638 0.901181 0.000000 0.000000 0.000000 7.415101 1.203175 -0.854033 -72.609409 -5.902475 9.557416 -178.803471 -66.180458 179.940316 6.500255 -0.199592 -0.042796 -0.179645 0.569753 -0.000000 0.000000 0.000000 0.000000 0.000000 0.000000 0.000000 8.688096 -7.174316 1.079023 69.474363 -16.276458 -0.883603 0.212722 81.754764 -0.034435 -9.769946 1.905524 -0.184439 0.118412 -0.235161 -0.000000 0.000000 0.000000 0.000000 0.000000 0.000000 0.000000 
-1.219263 15.293904 -1.517291 -153.368300 72.884390 -130.038088 11.158733 -2.752707 13.693710 1.560394 -2.732869 -0.648004 -5.547828 -2.676869 -1.919861 6.431545 -8.106254 -2.509552 -4.020689 -0.313377 0.955235 0.000000 0.000000 0.000000 6.792576 0.860186 -0.763925 -73.465882 -4.861015 9.640869 -178.929800 -67.934487 179.940626 6.627780 -0.243650 -0.045455 -0.172207 0.556096 -0.000000 0.000000 0.000000 0.000000 0.000000 0.000000 0.000000 9.455056 -6.906383 1.054645 69.117296 -15.065041 -1.287700 0.239533 80.675124 -0.035600 -10.147584 1.550749 -0.159263 0.123464 -0.229398 0.000000 0.000000 0.000000 0.000000 0.000000 0.000000 0.000000 
-1.065203 15.277643 -1.553572 -153.561053 72.156646 -130.463479 11.347192 -2.768498 13.919411 1.566119 -2.720082 -0.618092 -5.684043 -2.667597 -1.985958 6.950366 -7.668570 -2.321061 -4.054054 -0.315204 1.002321 0.000000 0.000000 0.000000 6.150480 0.605228 -0.674186 -74.257962 -3.880305 9.692347 -179.071218 -69.990405 179.940213 6.870773 -0.197452 -0.043225 -0.167446 0.537485 0.000000 0.000000 0.000000 0.000000 0.000000 0.000000 0.000000 10.258939 -6.652424 1.012969 68.801046 -13.719041 -1.726606 0.267166 79.481100 -0.037184 -10.628327 1.136594 -0.127290 0.129432 -0.223196 0.000000 0.000000 0.000000 0.000000 0.000000 0.000000 0.000000 
-0.913611 15.266230 -1.588652 -153.846085 71.467270 -130.933257 11.460436 -2.772639 14.100416 1.554209 -2.697103 -0.585235 -5.833658 -2.647755 -2.013377 7.491359 -7.252684 -2.164902 -4.074861 -0.316076 1.040993 0.000000 0.000000 0.000000 5.506789 0.444313 -0.583629 -74.966574 -2.967217 9.716096 -179.223942 -72.349656 179.939074 7.247798 -0.046414 -0.034405 -0.165706 0.513894 -0.000000 0.000000 0.000000 0.000000 0.000000 0.000000 0.000000 11.067732 -6.407620 0.954033 68.556445 -12.273254 -2.210672 0.293517 78.214786 -0.039192 -11.204064 0.684777 -0.088817 0.136027 -0.217036 0.000000 0.000000 0.000000 0.000000 0.000000 0.000000 0.000000 
-0.764206 15.259150 -1.622462 -154.253111 70.823716 -131.478017 11.491211 -2.764479 14.235243 1.524274 -2.664496 -0.550826 -5.991163 -2.618185 -2.004276 8.033064 -6.857927 -2.042825 -4.082081 -0.316030 1.070897 0.000000 0.000000 0.000000 4.877462 0.375534 -0.489495 -75.576462 -2.124221 9.717939 -179.382817 -74.997732 179.937260 7.773951 0.231363 -0.015792 -0.167112 0.485417 0.000000 0.000000 0.000000 0.000000 0.000000 0.000000 0.000000 11.847798 -6.161531 0.879274 68.409612 -10.768957 -2.749388 0.316212 76.924732 -0.041614 -11.862395 0.220112 -0.044745 0.142947 -0.211402 0.000000 0.000000 0.000000 0.000000 0.000000 0.000000 0.000000 
